<svg xmlns="http://www.w3.org/2000/svg"  viewBox="0 0 24 24" width="24px" height="24px"><path d="M 10 2 C 5.589 2 2 5.589 2 10 C 2 14.411 5.589 18 10 18 C 12.026 18 13.872203 17.236234 15.283203 15.990234 L 21.646484 22.353516 C 21.743484 22.450516 21.872 22.5 22 22.5 C 22.128 22.5 22.255516 22.450516 22.353516 22.353516 C 22.548516 22.157516 22.548516 21.842484 22.353516 21.646484 L 15.990234 15.283203 C 17.236234 13.873203 18 12.026 18 10 C 18 5.589 14.411 2 10 2 z M 10 3 C 13.859 3 17 6.14 17 10 C 17 13.86 13.859 17 10 17 C 6.141 17 3 13.86 3 10 C 3 6.14 6.141 3 10 3 z M 10 4 A 6 6 0 0 0 10 16 A 6 6 0 0 0 10 4 z"/></svg>